HIERARCHY
ROOT Hips
{
	OFFSET 0.000000 0.000000 0.000000
	CHANNELS 6 Xposition Yposition Zposition Xrotation Yrotation Zrotation
	JOINT LeftUpLeg_virtual
	{
		OFFSET 0.000000 0.000000 0.000000
		CHANNELS 3 Xrotation Yrotation Zrotation
		JOINT LeftUpLeg
		{
			OFFSET 13.026900 -6.336304 -1.092800
			CHANNELS 3 Xrotation Yrotation Zrotation
			JOINT LeftLeg
			{
				OFFSET 0.524474 -46.096886 9.782700
				CHANNELS 3 Xrotation Yrotation Zrotation
				JOINT LeftFoot
				{
					OFFSET -0.524474 -53.427422 -12.948200
					CHANNELS 3 Xrotation Yrotation Zrotation
					JOINT LeftToeBase
					{
						OFFSET 0.192200 -14.009700 16.364100
						CHANNELS 3 Xrotation Yrotation Zrotation
						JOINT LeftToe_End
						{
							OFFSET -1.784700 -0.561700 9.474800
							CHANNELS 3 Xrotation Yrotation Zrotation
							End Site
							{
								OFFSET 0 0 0
							}
						}
					}
				}
			}
		}
	}
	JOINT RightUpLeg_virtual
	{
		OFFSET 0.000000 0.000000 0.000000
		CHANNELS 3 Xrotation Yrotation Zrotation
		JOINT RightUpLeg
		{
			OFFSET -12.883000 -6.336304 -1.092800
			CHANNELS 3 Xrotation Yrotation Zrotation
			JOINT RightLeg
			{
				OFFSET -0.524587 -46.096825 9.782800
				CHANNELS 3 Xrotation Yrotation Zrotation
				JOINT RightFoot
				{
					OFFSET 0.524587 -53.427383 -12.948300
					CHANNELS 3 Xrotation Yrotation Zrotation
					JOINT RightToeBase
					{
						OFFSET -0.192200 -14.009700 16.364100
						CHANNELS 3 Xrotation Yrotation Zrotation
						JOINT RightToe_End
						{
							OFFSET 1.784700 -0.561700 9.474800
							CHANNELS 3 Xrotation Yrotation Zrotation
							End Site
							{
								OFFSET 0 0 0
							}
						}
					}
				}
			}
		}
	}
	JOINT Spine_virtual
	{
		OFFSET 0.000000 0.000000 0.000000
		CHANNELS 3 Xrotation Yrotation Zrotation
		JOINT Spine
		{
			OFFSET 0.072000 7.257294 -0.789700
			CHANNELS 3 Xrotation Yrotation Zrotation
			JOINT Spine1
			{
				OFFSET 0.000000 12.508769 -0.658067
				CHANNELS 3 Xrotation Yrotation Zrotation
				JOINT Spine1_split
				{
					OFFSET 0.000000 12.508769 -0.658067
					CHANNELS 3 Xrotation Yrotation Zrotation
					JOINT Spine2
					{
						OFFSET 0.000000 12.508769 -0.658067
						CHANNELS 3 Xrotation Yrotation Zrotation
						JOINT Neck_virtual
						{
							OFFSET 0.000000 0.000000 0.000000
							CHANNELS 3 Xrotation Yrotation Zrotation
							JOINT Neck
							{
								OFFSET 0.000000 14.033295 7.520400
								CHANNELS 3 Xrotation Yrotation Zrotation
								JOINT Head
								{
									OFFSET 0.000000 8.198502 5.703100
									CHANNELS 3 Xrotation Yrotation Zrotation
									JOINT HeadTop_End
									{
										OFFSET 0.000000 17.760803 13.332701
										CHANNELS 3 Xrotation Yrotation Zrotation
										End Site
										{
											OFFSET 0 0 0
										}
									}
								}
							}
						}
						JOINT LeftShoulder_virtual
						{
							OFFSET 0.000000 0.000000 0.000000
							CHANNELS 3 Xrotation Yrotation Zrotation
							JOINT LeftShoulder
							{
								OFFSET 6.292450 5.785301 -0.669000
								CHANNELS 3 Xrotation Yrotation Zrotation
								JOINT LeftShoulder_split
								{
									OFFSET 6.292450 5.785301 -0.669000
									CHANNELS 3 Xrotation Yrotation Zrotation
									JOINT LeftArm
									{
										OFFSET 13.907140 -6.093903 1.965100
										CHANNELS 3 Xrotation Yrotation Zrotation
										JOINT LeftForeArm
										{
											OFFSET 34.140198 0.000000 0.000000
											CHANNELS 3 Xrotation Yrotation Zrotation
											JOINT LeftHand
											{
												OFFSET 40.960209 0.000000 0.000000
												CHANNELS 3 Xrotation Yrotation Zrotation
												End Site
												{
													OFFSET 0 0 0
												}
											}
										}
									}
								}
							}
						}
						JOINT RightShoulder_virtual
						{
							OFFSET 0.000000 0.000000 0.000000
							CHANNELS 3 Xrotation Yrotation Zrotation
							JOINT RightShoulder
							{
								OFFSET -6.292450 5.785301 -0.669000
								CHANNELS 3 Xrotation Yrotation Zrotation
								JOINT RightShoulder_split
								{
									OFFSET -6.292450 5.785301 -0.669000
									CHANNELS 3 Xrotation Yrotation Zrotation
									JOINT RightArm
									{
										OFFSET -13.907140 -6.093903 1.965100
										CHANNELS 3 Xrotation Yrotation Zrotation
										JOINT RightForeArm
										{
											OFFSET -34.140198 0.000000 0.000000
											CHANNELS 3 Xrotation Yrotation Zrotation
											JOINT RightHand
											{
												OFFSET -40.960209 0.000000 0.000000
												CHANNELS 3 Xrotation Yrotation Zrotation
												End Site
												{
													OFFSET 0 0 0
												}
											}
										}
									}
								}
							}
						}
					}
				}
			}
		}
	}
}
MOTION
Frames: 11
Frame Time: 0.03333333
-1.108614 116.284309 0.207535 0.000000 0.000000 0.000000 -8.988464 -5.604666 9.449384 7.793423 15.589439 -13.610147 11.657540 -0.078014 -0.224907 -8.388673 -0.413291 4.325651 -0.000006 0.000006 -0.000002 0.000000 0.000000 0.000000 -8.988464 -5.604666 9.449384 -8.533532 -13.164767 -25.551072 23.031685 0.190149 0.219103 -6.539596 -9.499433 8.484224 -0.000167 0.000015 0.000189 0.000000 0.000000 0.000000 -8.988464 -5.604666 9.449384 2.433526 1.500352 -6.152622 4.666352 1.729999 -2.802044 0.000000 0.000000 0.000000 0.000000 0.000000 0.000000 4.685184 1.690012 -2.793393 -2.808737 -0.350888 -5.041333 -1.723853 -2.292228 2.025737 0.000000 0.000000 0.000000 4.685184 1.690012 -2.793393 4.034697 -13.464710 -7.420046 0.000000 0.000000 0.000000 5.772112 3.721073 -60.112918 11.491846 -25.077055 -5.820588 0.000000 0.000000 0.000000 4.685184 1.690012 -2.793393 3.919269 12.466717 7.900379 0.000000 0.000000 0.000000 -3.939676 -11.622640 68.565059 15.857367 12.603588 4.140672 0.000000 0.000000 0.000000 
-1.265842 116.305466 0.303234 0.000000 0.000000 0.000000 -9.267862 -5.359331 8.951754 6.174578 15.766168 -12.623181 14.297722 -0.208676 -0.226127 -7.430263 -0.153575 4.777455 0.000003 0.000000 0.000001 0.000000 0.000000 0.000000 -9.267862 -5.359331 8.951754 -8.419409 -13.101957 -25.025437 23.612719 0.084488 0.199453 -5.637906 -9.616902 8.632709 -0.541983 -0.006007 0.636381 0.000000 0.000000 0.000000 -9.267862 -5.359331 8.951754 2.786111 1.375172 -5.893833 5.395335 1.608661 -2.665655 0.000000 0.000000 0.000000 0.000000 0.000000 0.000000 5.413140 1.560643 -2.655693 -4.963399 -0.057444 -5.756623 -1.813866 -2.079885 1.239584 0.000000 0.000000 0.000000 5.413140 1.560643 -2.655693 3.884198 -14.711374 -6.633769 0.000000 0.000000 0.000000 14.149918 -3.920239 -57.208114 5.105487 -33.594982 -7.629419 0.000000 0.000000 0.000000 5.413140 1.560643 -2.655693 3.778977 13.585870 7.369178 0.000000 0.000000 0.000000 -1.561296 -8.690967 67.291133 19.661260 17.108678 3.253668 0.000000 0.000000 0.000000 
-1.393385 116.990295 0.837910 0.000000 0.000000 0.000000 -9.756887 -4.924534 8.238225 5.744668 15.492151 -11.640911 15.192482 -0.252153 -0.230267 -5.204742 0.097330 5.189880 -0.774321 0.011948 -0.883996 0.000000 0.000000 0.000000 -9.756887 -4.924534 8.238225 -7.615728 -13.777584 -24.459211 23.155361 0.088575 0.200007 -2.976696 -9.442091 9.656216 -1.387379 -0.039335 1.623763 0.000000 0.000000 0.000000 -9.756887 -4.924534 8.238225 3.350300 1.252637 -5.804041 6.545348 1.462752 -2.356483 0.000000 0.000000 0.000000 0.000000 0.000000 0.000000 6.561995 1.400467 -2.344019 -7.591530 0.266903 -6.803656 -3.470358 -1.812354 0.075825 0.000000 0.000000 0.000000 6.561995 1.400467 -2.344019 3.718492 -16.068572 -5.869253 0.000000 0.000000 0.000000 24.385447 -11.673112 -51.699693 -1.015564 -43.851652 -7.920996 0.000000 0.000000 0.000000 6.561995 1.400467 -2.344019 3.632213 14.772950 6.764340 0.000000 0.000000 0.000000 2.374868 -4.131467 64.732879 24.567499 23.972132 0.180357 0.000000 0.000000 0.000000 
-1.623677 117.964638 1.235664 0.000000 0.000000 0.000000 -10.368956 -4.346005 7.446388 5.445428 14.543069 -10.512996 15.510094 -0.271439 -0.228626 -2.271569 0.774649 4.805543 -3.023984 0.039832 -0.754057 0.000000 0.000000 0.000000 -10.368956 -4.346005 7.446388 -6.912624 -14.524906 -23.911618 22.732504 0.072133 0.195548 1.004902 -9.121002 11.391477 -4.039345 -0.053379 0.756001 0.000000 0.000000 0.000000 -10.368956 -4.346005 7.446388 4.114056 1.096559 -5.833094 8.102735 1.308807 -1.967463 0.000000 0.000000 0.000000 0.000000 0.000000 0.000000 8.118219 1.224252 -1.950584 -10.959815 0.827376 -8.283233 -5.796057 -1.466745 -1.105882 0.000000 0.000000 0.000000 8.118219 1.224252 -1.950584 3.677921 -17.189240 -4.621435 0.000000 0.000000 0.000000 35.375565 -17.290663 -44.197225 -8.508748 -55.069664 -8.002256 0.000000 0.000000 0.000000 8.118219 1.224252 -1.950584 3.594158 15.776876 5.711524 0.000000 0.000000 0.000000 7.321294 0.823299 61.355904 28.871469 31.893544 -5.417084 0.000000 0.000000 0.000000 
-1.870314 119.132080 1.258905 0.000000 0.000000 0.000000 -11.292768 -3.696723 6.556044 5.505741 13.094892 -9.364195 15.194324 -0.299488 -0.220863 1.173860 1.746132 4.146949 -5.267612 0.043359 -0.470261 0.000000 0.000000 0.000000 -11.292768 -3.696723 6.556044 -5.707020 -15.147384 -23.222215 21.708706 0.043900 0.185639 5.832313 -8.648837 13.917414 -7.062895 0.111704 -0.901542 0.000000 0.000000 0.000000 -11.292768 -3.696723 6.556044 5.067080 0.929830 -5.829397 10.048705 1.179354 -1.506793 0.000000 0.000000 0.000000 0.000000 0.000000 0.000000 10.062919 1.064182 -1.482888 -15.086221 1.643470 -10.274199 -7.234903 -1.305720 -2.073888 0.000000 0.000000 0.000000 10.062919 1.064182 -1.482888 3.792829 -17.998872 -2.810016 0.000000 0.000000 0.000000 45.750246 -19.635078 -36.192291 -21.232039 -66.513707 -12.196882 0.000000 0.000000 0.000000 10.062919 1.064182 -1.482888 3.695863 16.509324 4.154536 0.000000 0.000000 0.000000 12.858303 5.242513 57.359519 31.447058 40.722196 -12.921433 0.000000 0.000000 0.000000 
-2.297475 120.064644 0.606304 0.000000 0.000000 0.000000 -11.643045 -3.122174 5.784912 4.700019 12.297412 -8.128641 15.040324 -0.318657 -0.226376 4.435758 2.159714 3.542690 -7.198125 0.032606 -0.258137 0.000000 0.000000 0.000000 -11.643045 -3.122174 5.784912 -6.396669 -12.436328 -22.391327 23.973329 0.014867 0.186601 9.208838 -7.755699 15.711032 -3.457882 0.109023 -1.803429 0.000000 0.000000 0.000000 -11.643045 -3.122174 5.784912 5.985239 0.788115 -5.954909 11.925768 1.197065 -1.127009 0.000000 0.000000 0.000000 0.000000 0.000000 0.000000 11.939824 1.053965 -1.095914 -18.678995 2.360589 -12.136422 -8.640258 -1.370358 -2.697551 0.000000 0.000000 0.000000 11.939824 1.053965 -1.095914 3.767391 -18.757045 -1.913575 0.000000 0.000000 0.000000 54.316892 -18.784564 -28.071874 -46.310250 -76.081327 -29.622800 0.000000 0.000000 0.000000 11.939824 1.053965 -1.095914 3.634453 17.267910 3.450438 0.000000 0.000000 0.000000 17.972277 7.903372 52.294520 33.437843 49.740760 -21.898860 0.000000 0.000000 0.000000 
-3.005029 120.314957 -0.403933 0.000000 0.000000 0.000000 -11.619400 -2.671372 5.313801 2.846648 11.983452 -6.876586 16.137025 -0.352684 -0.276456 6.611744 2.195669 2.943001 -8.718635 0.010385 -0.067726 0.000000 0.000000 0.000000 -11.619400 -2.671372 5.313801 -10.942478 -3.908326 -21.277429 34.838152 -0.075547 0.183642 7.029436 -6.165672 17.378491 0.000013 -0.000009 0.000000 0.000000 0.000000 0.000000 -11.619400 -2.671372 5.313801 6.960788 0.719086 -6.222097 13.897080 1.341576 -0.871819 0.000000 0.000000 0.000000 0.000000 0.000000 0.000000 13.911359 1.185208 -0.836186 -20.580692 3.346885 -13.019386 -10.792418 -0.707095 -3.623230 0.000000 0.000000 0.000000 13.911359 1.185208 -0.836186 3.102874 -19.861423 -4.146644 0.000000 0.000000 0.000000 60.448807 -15.465701 -19.147640 -89.318712 -82.240682 -67.492856 0.000000 0.000000 0.000000 13.911359 1.185208 -0.836186 2.892174 18.619722 5.627769 0.000000 0.000000 0.000000 21.713547 8.045573 45.273724 39.228488 57.568475 -34.668975 0.000000 0.000000 0.000000 
-3.755592 120.470467 -1.544256 0.000000 0.000000 0.000000 -10.591113 -2.119601 4.604027 0.124564 11.663463 -5.437300 16.912431 -0.391415 -0.346118 8.136197 2.235887 2.778373 -9.631514 0.038215 -0.225197 0.000000 0.000000 0.000000 -10.591113 -2.119601 4.604027 -17.320836 2.752264 -19.505506 45.202431 -0.121592 0.161592 4.714693 -4.310973 17.464468 -0.000002 -0.000002 0.000001 0.000000 0.000000 0.000000 -10.591113 -2.119601 4.604027 7.785907 0.597310 -6.120009 15.559931 1.586076 -0.715183 0.000000 0.000000 0.000000 0.000000 0.000000 0.000000 15.574385 1.436217 -0.680106 -18.788715 4.106498 -12.224918 -14.974222 1.128071 -5.691696 0.000000 0.000000 0.000000 15.574385 1.436217 -0.680106 1.671290 -21.208863 -9.585014 0.000000 0.000000 0.000000 63.563134 -10.963336 -9.918427 -171.095501 -84.591435 -146.812813 0.000000 0.000000 0.000000 15.574385 1.436217 -0.680106 1.399864 20.579189 10.781934 0.000000 0.000000 0.000000 23.659179 5.972912 36.679858 52.772716 62.696731 -54.283055 0.000000 0.000000 0.000000 
-4.522904 120.508011 -2.886679 0.000000 0.000000 0.000000 -8.866749 -1.744282 3.477693 -3.586421 11.722208 -3.520451 17.972926 -0.442483 -0.413065 9.338102 2.089180 2.896491 -10.276158 0.103255 -0.569493 0.000000 0.000000 0.000000 -8.866749 -1.744282 3.477693 -25.027292 6.116372 -17.410420 54.001965 0.041527 0.173798 3.467836 -3.046440 13.712751 -0.000005 -0.000001 0.000001 0.000000 0.000000 0.000000 -8.866749 -1.744282 3.477693 8.408771 0.496674 -5.743863 16.798208 1.976617 -0.553601 0.000000 0.000000 0.000000 0.000000 0.000000 0.000000 16.812758 1.847509 -0.523514 -14.390423 4.195305 -9.654248 -18.669427 3.796730 -8.942849 0.000000 0.000000 0.000000 16.812758 1.847509 -0.523514 0.097645 -22.255587 -15.233584 0.000000 0.000000 0.000000 62.767185 -6.606424 -2.369625 137.181481 -78.514855 161.833450 0.000000 0.000000 0.000000 16.812758 1.847509 -0.523514 -0.142195 22.442743 16.080337 0.000000 0.000000 0.000000 23.697531 2.931895 28.770205 71.252656 64.965836 -78.017351 0.000000 0.000000 0.000000 
-5.263627 120.197289 -4.662401 0.000000 0.000000 0.000000 -6.840200 -1.591117 2.655324 -7.613018 11.769498 -2.262110 18.968185 -0.433977 -0.450725 9.888019 2.454559 4.406680 -10.311158 0.379396 -2.084440 0.000000 0.000000 0.000000 -6.840200 -1.591117 2.655324 -31.673397 6.062951 -16.257080 58.937620 0.343315 0.226313 3.540096 -3.127768 8.249216 -0.000005 0.000003 0.000002 0.000000 0.000000 0.000000 -6.840200 -1.591117 2.655324 8.837917 0.314767 -5.515098 17.659949 2.191596 -0.672069 0.000000 0.000000 0.000000 0.000000 0.000000 0.000000 17.673598 2.078594 -0.645959 -7.036773 4.364977 -8.033709 -21.354429 5.590319 -9.786631 0.000000 0.000000 0.000000 17.673598 2.078594 -0.645959 -0.854678 -22.989612 -18.262623 0.000000 0.000000 0.000000 57.273820 -2.603063 2.554346 132.910154 -71.581571 156.790681 0.000000 0.000000 0.000000 17.673598 2.078594 -0.645959 -0.995218 23.738883 18.669267 0.000000 0.000000 0.000000 21.505272 -0.002972 23.581129 90.256777 66.543384 -101.355943 0.000000 0.000000 0.000000 
-5.843797 119.073090 -6.268156 0.000000 0.000000 0.000000 -5.621004 -1.138543 2.294371 -11.917014 11.185135 -1.434514 22.150659 -0.510838 -0.419183 9.613052 2.947227 5.162070 -10.190991 0.529907 -2.945150 0.000000 0.000000 0.000000 -5.621004 -1.138543 2.294371 -36.248019 4.483217 -15.933313 62.136970 0.758789 0.311072 4.129070 -3.792799 1.808059 -0.000001 -0.000002 0.000002 0.000000 0.000000 0.000000 -5.621004 -1.138543 2.294371 9.313742 0.124474 -5.566333 18.624128 2.317852 -0.783688 0.000000 0.000000 0.000000 0.000000 0.000000 0.000000 18.638794 2.196024 -0.754718 1.897283 4.061754 -8.627021 -22.149496 5.347704 -8.529099 0.000000 0.000000 0.000000 18.638794 2.196024 -0.754718 -1.185086 -23.965380 -19.006147 0.000000 0.000000 0.000000 47.746536 0.703846 6.364898 143.440284 -67.121116 165.690677 0.000000 0.000000 0.000000 18.638794 2.196024 -0.754718 -1.240760 24.720905 19.051021 0.000000 0.000000 0.000000 16.801545 -2.724772 20.656558 111.366398 68.744952 -125.340569 0.000000 0.000000 0.000000 
